<?xml version="1.0" encoding="UTF-8" standalone="no"?>
<svg
   xmlns:dc="http://purl.org/dc/elements/1.1/"
   xmlns:cc="http://creativecommons.org/ns#"
   xmlns:rdf="http://www.w3.org/1999/02/22-rdf-syntax-ns#"
   xmlns:svg="http://www.w3.org/2000/svg"
   xmlns="http://www.w3.org/2000/svg"
   xmlns:sodipodi="http://sodipodi.sourceforge.net/DTD/sodipodi-0.dtd"
   xmlns:inkscape="http://www.inkscape.org/namespaces/inkscape"
   width="20"
   height="19"
   viewBox="0 0 20 19"
   fill="none"
   version="1.1"
   id="svg22"
   sodipodi:docname="like_active.svg"
   inkscape:version="1.0.2 (e86c870879, 2021-01-15, custom)">
  <metadata
     id="metadata28">
    <rdf:RDF>
      <cc:Work
         rdf:about="">
        <dc:format>image/svg+xml</dc:format>
        <dc:type
           rdf:resource="http://purl.org/dc/dcmitype/StillImage" />
        <dc:title></dc:title>
      </cc:Work>
    </rdf:RDF>
  </metadata>
  <defs
     id="defs26" />
  <sodipodi:namedview
     pagecolor="#ffffff"
     bordercolor="#666666"
     borderopacity="1"
     objecttolerance="10"
     gridtolerance="10"
     guidetolerance="10"
     inkscape:pageopacity="0"
     inkscape:pageshadow="2"
     inkscape:window-width="1482"
     inkscape:window-height="961"
     id="namedview24"
     showgrid="false"
     inkscape:zoom="22.368421"
     inkscape:cx="11.226948"
     inkscape:cy="7.4801875"
     inkscape:window-x="0"
     inkscape:window-y="0"
     inkscape:window-maximized="0"
     inkscape:current-layer="svg22" />
  <path
     fill-rule="evenodd"
     clip-rule="evenodd"
     d="M 14.0979,1.44916e-5 C 12.795,0 11.9551,0.155217 10.9924,0.626465 10.6359,0.800937 10.3015,1.01105 9.99095,1.25618 9.69235,1.0248 9.37131,0.824326 9.0296,0.655321 8.04816,0.169898 7.16523,0 5.90907,0 2.54477,0 0.0999756,2.78754 0.0999756,6.40789 c 0,2.73409 1.5244444,5.37521 4.3639544,7.92901 1.49045,1.3405 3.39344,2.6671 4.75629,3.3728 l 0.77976,0.4038 0.77972,-0.4038 C 12.1426,17.004 14.0456,15.6774 15.536,14.3369 18.3755,11.7831 19.9,9.14198 19.9,6.40789 19.9,2.82586 17.4321,0.0138225 14.0979,1.44916e-5 Z"
     fill="#000000"
     id="path20"
     sodipodi:nodetypes="ccccsscccccsc" />
</svg>
